<?xml version="1.0" encoding="iso-8859-1"?>
<!-- Generator: Adobe Illustrator 21.1.0, SVG Export Plug-In . SVG Version: 6.00 Build 0)  -->
<svg version="1.1" id="Layer_1" xmlns="http://www.w3.org/2000/svg" xmlns:xlink="http://www.w3.org/1999/xlink" x="0px" y="0px"
	 width="332.075px" height="279.5px" viewBox="0 0 332.075 279.5" style="enable-background:new 0 0 332.075 279.5;"
	 xml:space="preserve">
<path d="M331.8,183.8c-0.4-3.4-3.2-6.1-6.6-6.5h-3.9c-4.3,0-8-2.5-9.9-6.1c-0.4-0.9-0.7-1.9-0.9-2.8
	c-0.8-2.3-1.8-4.5-2.7-6.5c-0.5-0.7-0.9-1.6-1.2-2.5c-0.4-1.1-0.6-2.4-0.6-3.6c0-3,1.2-5.7,3.2-7.7l2.2-2.2c0,0,0.1,0,0.1-0.1
	c0,0,0-0.1,0.1-0.1c2.6-2.7,2.7-6.8,0.4-9.6c-1.7-2.1-3.5-4-5.4-5.9c-2-2-3.9-3.7-6-5.5c-2.6-2.1-6.2-2.2-8.9-0.2l-1.6,1.6l-1.5,1.5
	l-0.1-0.1c-3.2,3.2-7.9,4-11.8,2.4c-0.5-0.2-1-0.5-1.6-0.7c-2.5-1.2-5.1-2.3-7.8-3.2c-0.5-0.1-0.9-0.3-1.3-0.4
	c-1.3-0.5-2.5-1.3-3.6-2.4c-1.8-1.8-2.8-4-3.1-6.3c-0.1-0.9-0.1-1.9,0-2.7v-1.9c0-3.6-2.6-6.5-6-7.2c-0.4,0-0.8-0.1-1.2-0.1
	c-4.858-0.399-9.742-0.399-14.6,0c-0.4,0-0.8,0.1-1.2,0.1c-3.4,0.6-6,3.6-6,7.2v3.2c0,4.7-2.9,8.7-7.2,10.3
	c-0.3,0.1-0.5,0.2-0.8,0.3c-2.9,1-5.7,2.2-8.5,3.5l-0.6,0.3c-1.3,0.6-2.9,1-4.6,1c-3,0-5.7-1.2-7.7-3.2l-2.3-2.3
	c-2.5-2.5-6.4-2.8-9.3-0.8c-0.3,0.3-0.6,0.5-0.9,0.8c-1.9,1.6-3.6,3.2-5.4,5s-3.3,3.5-5,5.4c-0.3,0.3-0.5,0.6-0.8,1
	c-2,2.8-1.7,6.7,0.8,9.3l2.3,2.3c3.3,3.3,4,8.2,2.2,12.2c-0.1,0.2-0.2,0.5-0.4,0.7c-1.3,2.7-2.5,5.5-3.5,8.4l-0.3,0.9
	c-0.5,1.3-1.3,2.7-2.5,3.8c-2.2,2.2-4.9,3.2-7.7,3.2h-3.4c-3.6,0-6.5,2.6-7.2,6c0,0.4-0.1,0.8-0.1,1.2c-0.2,2.4-0.3,4.9-0.3,7.3v0.2
	c0,2.4,0.1,4.8,0.3,7.2c0,0.4,0.1,0.8,0.1,1.2c0.6,3.4,3.6,6,7.2,6h3.2c4.7,0,8.6,2.9,10.2,7.1c0.1,0.3,0.2,0.5,0.3,0.8
	c0.9,2.9,2.2,5.7,3.5,8.5l0.3,0.6c0.6,1.3,1,2.9,1,4.6c0,3-1.2,5.7-3.2,7.8l-2.2,2.2c0,0-0.1,0-0.1,0.1l-0.1,0.1
	c-2.4,2.5-2.7,6.3-0.8,9.1c0.3,0.4,0.6,0.7,0.9,1.1c1.6,1.9,3.2,3.6,4.9,5.3s3.5,3.3,5.3,4.9c0.4,0.3,0.7,0.6,1.1,0.9
	c2.5,1.7,5.9,1.7,8.4-0.2l1.6-1.6l1.5-1.5l0.1,0.1c3.3-3.3,8.2-4,12.2-2.2l0.6,0.3c2.7,1.3,5.6,2.6,8.5,3.5c0.2,0.1,0.5,0.2,0.7,0.2
	c1.5,0.5,2.8,1.3,3.9,2.5c2.2,2.2,3.2,4.9,3.2,7.7v3.2c0,3.7,2.9,6.8,6.5,7.3c2.7,0.2,5.3,0.4,8,0.4s5.4-0.1,8-0.4
	c3.6-0.4,6.5-3.5,6.5-7.3v-3.2c0-4.4,2.6-8.2,6.3-10c0.7-0.3,1.6-0.6,2.4-0.8c2.4-0.8,4.8-1.8,7-2.9c0.6-0.4,1.3-0.8,2.1-1
	c1.1-0.4,2.5-0.7,3.8-0.7c2.8,0,5.3,1,7.3,2.8l0.9,0.9l1.9,1.9c2.6,2.6,6.5,2.8,9.4,0.7c0.2-0.2,0.5-0.4,0.7-0.6
	c1.9-1.7,3.7-3.3,5.5-5.1c1.8-1.8,3.4-3.6,5.1-5.5c0.2-0.2,0.4-0.5,0.6-0.7c2-2.7,1.9-6.5-0.5-9.1l-0.5-0.5l-2.1-2.1
	c-3.2-3.2-4-8.1-2.3-12c0.2-0.4,0.3-0.7,0.5-1.1c1.2-2.6,2.4-5.4,3.4-8.2c0.1-0.4,0.2-0.7,0.4-1.1c0.5-1.3,1.3-2.6,2.5-3.7
	c2.2-2.2,4.9-3.2,7.7-3.2h3.1c3.9,0,7.1-3.1,7.3-7h0.1c0.2-2.5,0.3-5.1,0.3-7.7C332.3,189.2,332.1,186.5,331.8,183.8L331.8,183.8z
	 M279.7,191.9c0,3.9-0.6,7.8-1.9,11.4c-0.4,1.3-1,2.7-1.7,3.9c-1.7,3.5-3.9,6.6-6.7,9.4c-2.7,2.7-5.9,5-9.4,6.7
	c-1.2,0.6-2.6,1.2-4,1.7c-3.5,1.2-7.4,1.9-11.4,2h-0.1c-3.9,0-7.8-0.6-11.3-1.9c-1.5-0.5-2.8-1-4.1-1.7c-3.5-1.7-6.6-3.9-9.3-6.6
	c-2.7-2.7-5-5.9-6.7-9.3c-0.6-1.3-1.2-2.7-1.7-4.1c-1.2-3.5-1.9-7.4-1.9-11.3s0.6-7.9,1.9-11.5c0.5-1.5,1-2.8,1.7-4.1
	c1.8-3.5,4-6.6,6.7-9.3c2.7-2.7,5.9-5,9.4-6.7c1.3-0.6,2.7-1.2,4-1.7c3.5-1.2,7.4-1.9,11.3-1.9h0.1c3.9,0,7.8,0.7,11.4,2
	c1.3,0.5,2.7,1,3.9,1.7c3.5,1.8,6.6,4,9.4,6.7c2.7,2.7,5,5.9,6.6,9.3c0.6,1.3,1.2,2.6,1.7,4C278.9,184.1,279.7,188,279.7,191.9z
	 M16.7,64h265.4c9.2-1,16.4-8.7,16.5-18.2V18.3c-0.2-10-8.2-18.1-18.3-18.3h-262C8.2,0.2,0,8.4,0,18.6v26.9
	C0.1,55.1,7.3,62.9,16.7,64z M154.2,114c8.3-8.4,17.7-15.7,28.1-21.5H18.4c-10.1,0.2-18.3,8.4-18.3,18.6V138
	c0,9.5,7.3,17.4,16.5,18.5h109.8c3-7.6,6.6-14.7,11-21.5 M118.2,205.2c-0.4-4.4-0.7-8.8-0.7-13.3c0-2.8,0.1-5.5,0.3-8.2H18.4
	c-10.1,0.2-18.3,8.4-18.3,18.6v26.9c0,9.5,7.3,17.4,16.5,18.5h113.7c-3.3-6.8-6.1-14-8.2-21.5"/>
</svg>
