<svg xmlns="http://www.w3.org/2000/svg" width="544.2" height="544.2" viewBox="0 0 544.2 544.2"><path d="M272.3.8C2.3.8.2 122.6.2 272.9S2.3 545 272.3 545s272.1-121.8 272.1-272.1S542.3.8 272.3.8z" fill="#9f2784"/><path d="M451.1 326.2c-.4-3.4-3.2-6.1-6.6-6.5h-3.9c-4.3 0-8-2.5-9.9-6.1-.4-.9-.7-1.9-.9-2.8-.8-2.3-1.8-4.5-2.7-6.5-.5-.7-.9-1.6-1.2-2.5-.4-1.1-.6-2.4-.6-3.6 0-3 1.2-5.7 3.2-7.7l2.2-2.2s.1 0 .1-.1c0 0 0-.1.1-.1 2.6-2.7 2.7-6.8.4-9.6-1.7-2.1-3.5-4-5.4-5.9-2-2-3.9-3.7-6-5.5-2.6-2.1-6.2-2.2-8.9-.2l-1.6 1.6-1.5 1.5-.1-.1c-3.2 3.2-7.9 4-11.8 2.4-.5-.2-1-.5-1.6-.7-2.5-1.2-5.1-2.3-7.8-3.2-.5-.1-.9-.3-1.3-.4-1.3-.5-2.5-1.3-3.6-2.4-1.8-1.8-2.8-4-3.1-6.3-.1-.9-.1-1.9 0-2.7v-1.9c0-3.6-2.6-6.5-6-7.2-.4 0-.8-.1-1.2-.1a89.08 89.08 0 0 0-14.6 0c-.4 0-.8.1-1.2.1-3.4.6-6 3.6-6 7.2v3.2c0 4.7-2.9 8.7-7.2 10.3-.3.1-.5.2-.8.3-2.9 1-5.7 2.2-8.5 3.5l-.6.3c-1.3.6-2.9 1-4.6 1-3 0-5.7-1.2-7.7-3.2l-2.3-2.3c-2.5-2.5-6.4-2.8-9.3-.8-.3.3-.6.5-.9.8-1.9 1.6-3.6 3.2-5.4 5s-3.3 3.5-5 5.4c-.3.3-.5.6-.8 1-2 2.8-1.7 6.7.8 9.3l2.3 2.3c3.3 3.3 4 8.2 2.2 12.2-.1.2-.2.5-.4.7-1.3 2.7-2.5 5.5-3.5 8.4l-.3.9c-.5 1.3-1.3 2.7-2.5 3.8-2.2 2.2-4.9 3.2-7.7 3.2H284c-3.6 0-6.5 2.6-7.2 6 0 .4-.1.8-.1 1.2-.2 2.4-.3 4.9-.3 7.3v.2c0 2.4.1 4.8.3 7.2 0 .4.1.8.1 1.2.6 3.4 3.6 6 7.2 6h3.2c4.7 0 8.6 2.9 10.2 7.1.1.3.2.5.3.8.9 2.9 2.2 5.7 3.5 8.5l.3.6c.6 1.3 1 2.9 1 4.6 0 3-1.2 5.7-3.2 7.8l-2.2 2.2s-.1 0-.1.1l-.1.1c-2.4 2.5-2.7 6.3-.8 9.1.3.4.6.7.9 1.1 1.6 1.9 3.2 3.6 4.9 5.3s3.5 3.3 5.3 4.9c.4.3.7.6 1.1.9 2.5 1.7 5.9 1.7 8.4-.2l1.6-1.6 1.5-1.5.1.1c3.3-3.3 8.2-4 12.2-2.2l.6.3c2.7 1.3 5.6 2.6 8.5 3.5.2.1.5.2.7.2 1.5.5 2.8 1.3 3.9 2.5 2.2 2.2 3.2 4.9 3.2 7.7v3.2c0 3.7 2.9 6.8 6.5 7.3 2.7.2 5.3.4 8 .4s5.4-.1 8-.4c3.6-.4 6.5-3.5 6.5-7.3V411c0-4.4 2.6-8.2 6.3-10 .7-.3 1.6-.6 2.4-.8 2.4-.8 4.8-1.8 7-2.9.6-.4 1.3-.8 2.1-1 1.1-.4 2.5-.7 3.8-.7 2.8 0 5.3 1 7.3 2.8l.9.9 1.9 1.9c2.6 2.6 6.5 2.8 9.4.7.2-.2.5-.4.7-.6 1.9-1.7 3.7-3.3 5.5-5.1 1.8-1.8 3.4-3.6 5.1-5.5.2-.2.4-.5.6-.7 2-2.7 1.9-6.5-.5-9.1l-.5-.5-2.1-2.1c-3.2-3.2-4-8.1-2.3-12 .2-.4.3-.7.5-1.1 1.2-2.6 2.4-5.4 3.4-8.2.1-.4.2-.7.4-1.1.5-1.3 1.3-2.6 2.5-3.7 2.2-2.2 4.9-3.2 7.7-3.2h3.1c3.9 0 7.1-3.1 7.3-7h.1c.2-2.5.3-5.1.3-7.7.7-2.7.5-5.4.2-8.1zm-52.1 8.1c0 3.9-.6 7.8-1.9 11.4-.4 1.3-1 2.7-1.7 3.9-1.7 3.5-3.9 6.6-6.7 9.4-2.7 2.7-5.9 5-9.4 6.7-1.2.6-2.6 1.2-4 1.7-3.5 1.2-7.4 1.9-11.4 2h-.1c-3.9 0-7.8-.6-11.3-1.9-1.5-.5-2.8-1-4.1-1.7-3.5-1.7-6.6-3.9-9.3-6.6-2.7-2.7-5-5.9-6.7-9.3-.6-1.3-1.2-2.7-1.7-4.1-1.2-3.5-1.9-7.4-1.9-11.3s.6-7.9 1.9-11.5c.5-1.5 1-2.8 1.7-4.1 1.8-3.5 4-6.6 6.7-9.3 2.7-2.7 5.9-5 9.4-6.7 1.3-.6 2.7-1.2 4-1.7 3.5-1.2 7.4-1.9 11.3-1.9h.1c3.9 0 7.8.7 11.4 2 1.3.5 2.7 1 3.9 1.7 3.5 1.8 6.6 4 9.4 6.7 2.7 2.7 5 5.9 6.6 9.3.6 1.3 1.2 2.6 1.7 4 1.3 3.5 2.1 7.4 2.1 11.3zM136 206.4h265.4c9.2-1 16.4-8.7 16.5-18.2v-27.5c-.2-10-8.2-18.1-18.3-18.3h-262c-10.1.2-18.3 8.4-18.3 18.6v26.9c.1 9.6 7.3 17.4 16.7 18.5zm137.5 50c8.3-8.4 17.7-15.7 28.1-21.5H137.7c-10.1.2-18.3 8.4-18.3 18.6v26.9c0 9.5 7.3 17.4 16.5 18.5h109.8c3-7.6 6.6-14.7 11-21.5m-19.2 70.2c-.4-4.4-.7-8.8-.7-13.3 0-2.8.1-5.5.3-8.2h-99.4c-10.1.2-18.3 8.4-18.3 18.6v26.9c0 9.5 7.3 17.4 16.5 18.5h113.7c-3.3-6.8-6.1-14-8.2-21.5" fill="#fff"/></svg>